<svg width="224" height="280" viewBox="0 0 224 280" fill="none" xmlns="http://www.w3.org/2000/svg">
<rect x="0.115234" y="0.794815" width="223.312" height="279.14" fill="#162357"/>
<path d="M116.396 84.0652C119.158 84.0654 121.396 86.3039 121.396 89.0652V89.6648L130.719 84.283C131.385 83.8981 132.218 84.3786 132.219 85.1482V103.463C132.219 104.232 131.385 104.714 130.719 104.329L121.396 98.946V99.5457C121.396 102.307 119.158 104.545 116.396 104.546H96.3232C93.5618 104.546 91.3232 102.307 91.3232 99.5457V89.0652C91.3232 86.3038 93.5618 84.0652 96.3232 84.0652H116.396Z" fill="white"/>
<circle cx="95.782" cy="75.6396" r="8.42553" fill="white"/>
<circle cx="114.707" cy="75.6396" r="8.42553" fill="white"/>
<circle cx="114.753" cy="75.6396" r="2.98145" fill="black"/>
<circle cx="95.7817" cy="75.6396" r="2.98145" fill="black"/>
<rect x="73.1758" y="92.6527" width="9.33301" height="3.3054" rx="1.6527" fill="white"/>
<rect x="59.6948" y="92.6527" width="9.33301" height="3.3054" rx="1.6527" fill="white"/>
<rect x="141.033" y="92.6527" width="9.33301" height="3.3054" rx="1.6527" fill="white"/>
<rect x="154.514" y="92.6527" width="9.33301" height="3.3054" rx="1.6527" fill="white"/>
<path d="M42.5327 166.216C40.9327 166.216 40.1327 165.288 40.1327 163.432C40.1327 163.048 40.2607 162.248 40.5167 161.032C40.8367 159.816 40.9967 158.472 40.9967 157V152.296V145.384C40.6767 140.84 39.8767 135.304 38.5967 128.776C37.1887 121.608 36.1007 114.952 35.3327 108.808C35.5247 107.72 36.0367 107.176 36.8687 107.176C37.9567 107.176 39.2687 110.056 40.8047 115.816C42.3407 121.512 43.9087 130.952 45.5087 144.136C46.7887 140.936 48.5487 137.704 50.7887 134.44C53.0287 131.112 55.3967 128.36 57.8927 126.184C60.3887 124.008 62.5647 122.92 64.4207 122.92C65.1887 122.92 65.6687 123.144 65.8607 123.592C66.1167 124.04 66.2127 124.68 66.1487 125.512C62.3727 128.84 58.5647 132.712 54.7247 137.128C50.8847 141.544 48.9647 144.968 48.9647 147.4C48.9647 148.872 50.1807 150.568 52.6127 152.488C55.0447 154.344 58.0527 156.008 61.6367 157.48C65.2207 158.888 68.5807 159.688 71.7167 159.88C72.9327 160.072 73.5407 160.808 73.5407 162.088C73.5407 164.264 71.4927 165.352 67.3967 165.352C64.1327 165.352 60.5487 164.04 56.6447 161.416C52.8047 158.792 49.4767 156.04 46.6607 153.16C46.4687 154.248 46.3407 155.208 46.2767 156.04C46.2127 156.808 46.1487 157.48 46.0847 158.056C45.8287 160.872 45.4767 162.952 45.0287 164.296C44.6447 165.576 43.8127 166.216 42.5327 166.216ZM88.6584 166.216C87.1864 166.216 86.0024 164.072 85.1064 159.784C84.2104 155.432 83.6344 151.688 83.3784 148.552C83.1224 145.416 82.7704 140.456 82.3224 133.672C82.2584 132.584 82.2264 131.176 82.2264 129.448C82.2264 127.272 82.3864 125.768 82.7064 124.936C83.0904 124.104 83.6984 123.688 84.5304 123.688C85.2344 123.688 85.7784 123.848 86.1624 124.168C86.6104 124.424 86.9944 124.872 87.3144 125.512L87.2184 129.352C87.2184 133.448 87.4104 137.32 87.7944 140.968C88.2424 144.616 88.9144 149.512 89.8104 155.656C90.3224 158.344 90.6744 160.552 90.8664 162.28C90.9944 163.176 90.8344 164.072 90.3864 164.968C89.9384 165.8 89.3624 166.216 88.6584 166.216ZM86.2584 113.416C84.8504 113.416 83.7944 112.872 83.0904 111.784C82.4504 110.696 82.1304 109.352 82.1304 107.752C82.1304 107.048 82.1624 106.536 82.2264 106.216C82.1624 105.192 82.7384 104.68 83.9544 104.68C84.8504 104.68 85.7464 104.904 86.6424 105.352C87.6024 105.736 87.8904 106.024 87.5064 106.216C88.1464 107.88 88.4664 109.192 88.4664 110.152C88.4664 110.984 88.2744 111.656 87.8904 112.168C87.5064 112.616 86.9624 113.032 86.2584 113.416ZM127.892 166.216C120.404 166.216 114.58 164.52 110.42 161.128C106.324 157.672 104.276 152.36 104.276 145.192C104.276 141.544 105.172 138.088 106.964 134.824C108.82 131.496 111.284 128.84 114.356 126.856C117.492 124.808 120.852 123.784 124.436 123.784C128.084 123.784 131.188 124.584 133.748 126.184C136.308 127.72 137.588 129.96 137.588 132.904C137.588 134.952 137.204 136.424 136.436 137.32C135.732 138.152 134.932 138.568 134.036 138.568C134.036 135.496 133.204 133 131.54 131.08C129.876 129.16 127.508 128.2 124.436 128.2C121.364 128.2 118.708 129.032 116.468 130.696C114.228 132.296 112.5 134.44 111.284 137.128C110.132 139.752 109.556 142.504 109.556 145.384C109.556 151.464 111.604 155.592 115.7 157.768C119.86 159.944 125.332 161.032 132.116 161.032C134.42 161.032 137.428 160.904 141.14 160.648C141.268 160.648 141.556 160.776 142.004 161.032C142.452 161.288 142.804 161.448 143.06 161.512V162.088C143.06 163.944 141.428 165.096 138.164 165.544C134.9 165.992 131.476 166.216 127.892 166.216ZM158.933 166.216C157.333 166.216 156.533 165.288 156.533 163.432C156.533 163.048 156.661 162.248 156.917 161.032C157.237 159.816 157.397 158.472 157.397 157V152.296V145.384C157.077 140.84 156.277 135.304 154.997 128.776C153.589 121.608 152.501 114.952 151.733 108.808C151.925 107.72 152.437 107.176 153.269 107.176C154.357 107.176 155.669 110.056 157.205 115.816C158.741 121.512 160.309 130.952 161.909 144.136C163.189 140.936 164.949 137.704 167.189 134.44C169.429 131.112 171.797 128.36 174.293 126.184C176.789 124.008 178.965 122.92 180.821 122.92C181.589 122.92 182.069 123.144 182.261 123.592C182.517 124.04 182.613 124.68 182.549 125.512C178.773 128.84 174.965 132.712 171.125 137.128C167.285 141.544 165.365 144.968 165.365 147.4C165.365 148.872 166.581 150.568 169.013 152.488C171.445 154.344 174.453 156.008 178.037 157.48C181.621 158.888 184.981 159.688 188.117 159.88C189.333 160.072 189.941 160.808 189.941 162.088C189.941 164.264 187.893 165.352 183.797 165.352C180.533 165.352 176.949 164.04 173.045 161.416C169.205 158.792 165.877 156.04 163.061 153.16C162.869 154.248 162.741 155.208 162.677 156.04C162.613 156.808 162.549 157.48 162.485 158.056C162.229 160.872 161.877 162.952 161.429 164.296C161.045 165.576 160.213 166.216 158.933 166.216Z" fill="white"/>
<path d="M68.8918 186.127C68.9984 186.981 69.0518 187.967 69.0518 189.087C69.0518 190.207 68.9451 193.754 68.7318 199.727L72.0918 200.047C72.0918 200.794 71.8651 201.594 71.4118 202.447H62.2118L62.0918 201.047C63.3184 200.621 64.5184 200.301 65.6918 200.087C65.5318 192.994 65.3851 189.047 65.2518 188.247C65.1451 187.447 64.9584 186.781 64.6918 186.247C64.4251 185.687 64.0118 185.301 63.4518 185.087C62.8918 184.874 62.0384 184.767 60.8918 184.767C59.7718 184.767 58.2918 185.194 56.4518 186.047C56.2918 192.127 56.1851 196.687 56.1318 199.727L59.4918 200.047C59.4918 200.794 59.2651 201.594 58.8118 202.447H49.6118L49.4918 201.047C50.7184 200.621 51.9184 200.301 53.0918 200.087C53.0651 198.167 52.9984 195.461 52.8918 191.967C52.7851 188.447 52.7184 186.141 52.6918 185.047C51.2251 184.967 50.0518 184.807 49.1718 184.567L49.3318 182.487C50.7718 182.087 52.8651 181.887 55.6118 181.887C55.9851 182.554 56.2251 183.247 56.3318 183.967C57.5051 183.354 58.6651 182.821 59.8118 182.367C60.9584 181.887 61.6784 181.647 61.9718 181.647C64.9318 181.647 66.9984 182.554 68.1718 184.367C69.3984 183.701 70.6651 183.087 71.9718 182.527C73.3051 181.941 74.1051 181.647 74.3718 181.647C76.7984 181.647 78.6118 182.247 79.8118 183.447C81.0384 184.621 81.6518 186.554 81.6518 189.247C81.6518 190.047 81.5451 193.541 81.3318 199.727L84.6918 200.047C84.6918 200.794 84.4651 201.594 84.0118 202.447H74.8118L74.6918 201.047C75.9184 200.621 77.1184 200.301 78.2918 200.087C78.1851 195.874 78.0918 192.687 78.0118 190.527C77.9318 188.367 77.6251 186.874 77.0918 186.047C76.5584 185.194 75.4918 184.767 73.8918 184.767C72.2918 184.767 70.6251 185.221 68.8918 186.127ZM97.763 200.527C100.003 200.527 101.51 199.834 102.283 198.447C103.083 197.034 103.483 195.034 103.483 192.447C103.483 188.341 102.576 185.767 100.763 184.727C100.016 184.301 98.963 184.087 97.603 184.087C96.2697 184.087 95.003 184.367 93.803 184.927C92.7363 186.981 92.203 189.367 92.203 192.087C92.203 194.701 92.5497 196.714 93.243 198.127C94.043 199.727 95.5497 200.527 97.763 200.527ZM88.523 192.447C88.523 189.061 89.2963 186.421 90.843 184.527C92.3897 182.607 94.7763 181.647 98.003 181.647C101.23 181.647 103.563 182.527 105.003 184.287C106.443 186.021 107.163 188.594 107.163 192.007C107.163 195.421 106.39 198.101 104.843 200.047C103.323 201.994 101.003 202.967 97.883 202.967C94.763 202.967 92.4163 202.061 90.843 200.247C89.2963 198.434 88.523 195.834 88.523 192.447ZM131.526 184.807L123.726 202.447H120.886L113.566 184.847L110.206 184.527C110.206 183.781 110.433 182.981 110.886 182.127H120.566L120.686 183.527C119.833 183.901 118.886 184.194 117.846 184.407L121.446 195.327L122.366 198.847H122.846L123.846 195.287L127.566 184.407L124.206 183.527L124.326 182.127H134.126C134.58 182.981 134.806 183.781 134.806 184.527C133.713 184.661 132.62 184.754 131.526 184.807ZM144.84 178.327C144.147 178.487 143.467 178.567 142.8 178.567C142.16 178.567 141.52 178.527 140.88 178.447C140.72 177.701 140.64 176.954 140.64 176.207C140.64 175.434 140.667 174.861 140.72 174.487C141.307 174.354 141.92 174.287 142.56 174.287C143.227 174.287 143.934 174.314 144.68 174.367C144.84 175.061 144.92 175.741 144.92 176.407C144.92 177.047 144.894 177.687 144.84 178.327ZM137.56 182.527C139.827 182.127 141.587 181.927 142.84 181.927C144.094 181.927 144.894 181.954 145.24 182.007C145.24 182.647 145.16 183.354 145 184.127C144.84 184.901 144.747 185.274 144.72 185.247L144.36 199.727L147.72 200.047C147.72 200.794 147.494 201.594 147.04 202.447H137.84L137.72 201.047C138.947 200.621 140.147 200.301 141.32 200.087C141.16 193.421 141.027 188.421 140.92 185.087C139.374 185.087 138.2 184.927 137.4 184.607L137.56 182.527ZM162.105 200.207C163.278 200.207 165.118 199.647 167.625 198.527C168.132 199.221 168.398 199.834 168.425 200.367C167.065 201.167 165.732 201.794 164.425 202.247C163.118 202.701 162.185 202.927 161.625 202.927C158.532 202.927 156.172 202.007 154.545 200.167C152.918 198.301 152.105 195.701 152.105 192.367C152.105 189.034 152.892 186.421 154.465 184.527C156.065 182.607 158.452 181.647 161.625 181.647C164.078 181.647 165.945 182.527 167.225 184.287C168.532 186.047 169.185 188.407 169.185 191.367C168.972 191.741 168.798 191.994 168.665 192.127L155.785 191.927C155.812 194.621 156.278 196.674 157.185 198.087C158.118 199.501 159.758 200.207 162.105 200.207ZM165.545 189.647C165.545 187.887 165.225 186.527 164.585 185.567C163.945 184.581 162.878 184.087 161.385 184.087C159.892 184.087 158.558 184.367 157.385 184.927C156.585 186.527 156.078 188.167 155.865 189.847C157.972 189.821 161.198 189.754 165.545 189.647Z" fill="white"/>
</svg>
