<svg width="311" height="119" viewBox="0 0 311 119" fill="none" xmlns="http://www.w3.org/2000/svg">
<rect width="311" height="119" rx="10" fill="url(#paint0_linear_119_100)"/>
<path d="M13.803 44.3V66.842L30.276 44.3L30.684 44.657L21.555 57.101L35.121 80H30.378L18.954 60.671L13.803 67.76V80H9.57V44.3H13.803ZM43.7699 44.81V44.3H52.8479V44.81H50.3489V79.49H52.8479V80H43.7699V79.49H46.1159V44.81H43.7699ZM79.8572 80.204C73.4992 80.204 68.7902 78.402 65.7302 74.798C64.6422 73.506 63.7582 71.789 63.0782 69.647C62.3982 67.505 62.0582 64.904 62.0582 61.844C62.0582 58.784 62.5512 56.047 63.5372 53.633C64.5572 51.185 65.9342 49.298 67.6682 47.972C71.0342 45.49 75.0972 44.249 79.8572 44.249C81.2172 44.249 82.5432 44.368 83.8352 44.606C85.1272 44.81 86.0962 45.031 86.7422 45.269L87.6602 45.626L87.5072 46.136C85.1952 45.218 82.6452 44.759 79.8572 44.759C76.2532 44.759 73.2442 45.932 70.8302 48.278C68.9942 50.012 67.7022 52.562 66.9542 55.928C66.5122 57.832 66.2912 60.161 66.2912 62.915C66.2912 65.669 66.6822 68.219 67.4642 70.565C68.2462 72.877 69.1302 74.594 70.1162 75.716C71.1362 76.838 72.3602 77.739 73.7882 78.419C75.2162 79.065 76.3552 79.439 77.2052 79.541C78.0552 79.643 79.0752 79.694 80.2652 79.694C81.4892 79.694 82.8662 79.575 84.3962 79.337C85.9262 79.099 87.0822 78.878 87.8642 78.674L89.0372 78.317L89.1902 78.827C86.6062 79.745 83.4952 80.204 79.8572 80.204ZM102.358 44.3V66.842L118.831 44.3L119.239 44.657L110.11 57.101L123.676 80H118.933L107.509 60.671L102.358 67.76V80H98.1247V44.3H102.358ZM132.733 80H132.07L136.507 44.3H138.19L148.9 77.297L159.559 44.3H161.242L165.679 80H161.446L157.927 51.44L148.696 80H145.483L136.15 51.797L132.733 80ZM174.37 63.017C174.37 56.829 175.866 52.137 178.858 48.941C181.884 45.711 185.76 44.096 190.486 44.096C195.212 44.096 198.969 45.49 201.757 48.278C204.579 51.066 205.99 55.52 205.99 61.64C205.99 67.76 204.494 72.384 201.502 75.512C198.51 78.64 194.515 80.204 189.517 80.204C185.199 80.204 181.663 78.963 178.909 76.481C177.481 75.189 176.359 73.404 175.543 71.126C174.761 68.814 174.37 66.111 174.37 63.017ZM190.333 44.606C186.899 44.606 184.077 46.136 181.867 49.196C179.691 52.256 178.603 56.744 178.603 62.66C178.603 68.576 179.64 72.894 181.714 75.614C183.788 78.334 186.542 79.694 189.976 79.694C193.444 79.694 196.266 78.164 198.442 75.104C200.652 72.01 201.757 67.539 201.757 61.691C201.757 55.809 200.703 51.491 198.595 48.737C196.521 45.983 193.767 44.606 190.333 44.606ZM238.143 44.3C238.789 44.946 239.112 45.779 239.112 46.799C239.112 47.649 238.925 48.516 238.551 49.4L225.495 80L224.934 80.255L212.082 44.3H216.417L227.076 74.492L237.939 49.4C238.313 48.55 238.5 47.666 238.5 46.748C238.5 45.83 238.245 45.116 237.735 44.606L238.143 44.3ZM247.774 44.81V44.3H256.852V44.81H254.353V79.49H256.852V80H247.774V79.49H250.12V44.81H247.774ZM287.878 44.3V44.81H271.813V60.11H286.705V60.62H271.813V79.49H289V80H267.58V44.3H287.878Z" fill="url(#paint1_linear_119_100)"/>
<path d="M36 27H54L72 4H54L36 27Z" fill="url(#paint2_linear_119_100)"/>
<path d="M69 27H87L105 4H87L69 27Z" fill="url(#paint3_linear_119_100)"/>
<path d="M102 27H120L138 4H120L102 27Z" fill="url(#paint4_linear_119_100)"/>
<path d="M135 27H153L171 4H153L135 27Z" fill="url(#paint5_linear_119_100)"/>
<g clip-path="url(#clip0_119_100)">
<path d="M18.9998 25.3334C23.6022 25.3334 27.3332 21.6024 27.3332 17C27.3332 12.3976 23.6022 8.66669 18.9998 8.66669C14.3975 8.66669 10.6665 12.3976 10.6665 17C10.6665 21.6024 14.3975 25.3334 18.9998 25.3334Z" stroke="url(#paint6_linear_119_100)" stroke-width="4" stroke-linecap="round" stroke-linejoin="round"/>
<path d="M17.3332 13.6667L22.3332 17L17.3332 20.3334V13.6667Z" stroke="url(#paint7_linear_119_100)" stroke-width="4" stroke-linecap="round" stroke-linejoin="round"/>
</g>
<rect x="12" y="90" width="29" height="19" rx="2" fill="url(#paint8_linear_119_100)"/>
<rect x="43" y="90" width="29" height="19" rx="2" fill="url(#paint9_linear_119_100)"/>
<path d="M75 90V109H93C98 109 98 100.556 98 100.556C98 100.556 98 90 93 90H75Z" fill="url(#paint10_linear_119_100)"/>
<circle cx="109" cy="104" r="4" fill="#D7B7C8"/>
<circle cx="139" cy="104" r="4" fill="#D7B7C8"/>
<circle cx="124" cy="104" r="4" fill="#D7B7C8"/>
<rect x="133" y="86" width="159" height="4" rx="2" fill="url(#paint11_linear_119_100)"/>
<path d="M160.649 108C160.591 107.927 160.464 107.641 160.268 107.142C160.077 106.638 159.852 106.071 159.593 105.441C159.339 104.805 159.114 104.324 158.919 103.996V108H156.491V99.4053H158.919V103.519L160.745 99.4053H163.187L161.001 103.439C161.143 103.536 161.331 103.803 161.566 104.238C161.801 104.673 162.021 105.13 162.226 105.609C162.431 106.088 162.644 106.57 162.864 107.054C163.084 107.533 163.245 107.848 163.348 108H160.649ZM168.359 108H165.932V99.4053H168.359V102.808H170.244V99.4053H172.671V108H170.244V104.495H168.359V108ZM181.08 107.223C180.46 107.844 179.721 108.154 178.866 108.154C178.26 108.154 177.734 108.049 177.289 107.839C176.849 107.628 176.5 107.325 176.24 106.929C175.981 106.533 175.791 106.081 175.668 105.573C175.551 105.064 175.492 104.485 175.492 103.835C175.492 103.351 175.517 102.916 175.566 102.529C175.62 102.143 175.705 101.774 175.822 101.422C175.94 101.07 176.101 100.767 176.306 100.513C176.512 100.254 176.764 100.029 177.062 99.838C177.36 99.6473 177.722 99.5056 178.147 99.4127C178.572 99.3149 179.056 99.266 179.599 99.266C179.844 99.266 180.076 99.2807 180.296 99.31C180.521 99.3393 180.711 99.376 180.868 99.42C181.024 99.4591 181.171 99.5104 181.308 99.574C181.45 99.6327 181.56 99.6864 181.638 99.7353C181.721 99.7793 181.797 99.8282 181.865 99.882C181.934 99.9358 181.975 99.9724 181.99 99.992C182.009 100.012 182.024 100.026 182.034 100.036L181.924 101.723H180.589L180.171 100.747C180.064 100.689 179.89 100.659 179.65 100.659C179.455 100.659 179.294 100.676 179.166 100.711C179.039 100.745 178.912 100.818 178.785 100.931C178.663 101.038 178.565 101.197 178.492 101.407C178.423 101.613 178.367 101.894 178.323 102.251C178.279 102.603 178.257 103.033 178.257 103.541C178.257 104.602 178.313 105.389 178.426 105.903C178.543 106.416 178.775 106.673 179.122 106.673C179.294 106.673 179.438 106.658 179.555 106.629C179.672 106.594 179.782 106.536 179.885 106.453C179.988 106.365 180.064 106.238 180.112 106.071C180.161 105.9 180.186 105.683 180.186 105.419V104.671L179.218 104.451V102.955H182.481L182.474 108H181.168L181.08 107.223ZM188.662 107.347L188.589 107.428C188.54 107.487 188.464 107.555 188.362 107.633C188.264 107.712 188.149 107.79 188.017 107.868C187.89 107.946 187.733 108.012 187.548 108.066C187.362 108.125 187.171 108.154 186.976 108.154C185.656 108.154 184.996 107.501 184.996 106.196C184.996 105.942 185.042 105.71 185.135 105.499C185.228 105.284 185.348 105.103 185.494 104.957C185.641 104.81 185.817 104.68 186.022 104.568C186.228 104.451 186.433 104.36 186.638 104.297C186.848 104.228 187.068 104.172 187.298 104.128C187.528 104.084 187.733 104.055 187.914 104.04C188.095 104.025 188.269 104.018 188.435 104.018V103.886C188.435 103.588 188.354 103.378 188.193 103.255C188.036 103.133 187.782 103.072 187.43 103.072C187.127 103.072 186.812 103.109 186.484 103.182C186.157 103.25 185.9 103.334 185.714 103.431L185.245 102.434C185.577 102.219 186.01 102.031 186.543 101.869C187.076 101.703 187.618 101.62 188.171 101.62C188.66 101.62 189.063 101.669 189.381 101.767C189.699 101.86 189.955 102.021 190.151 102.251C190.351 102.476 190.493 102.764 190.576 103.116C190.659 103.463 190.701 103.906 190.701 104.443V107.428L190.906 108H188.897L188.662 107.347ZM188.083 106.863C188.146 106.863 188.205 106.851 188.259 106.827C188.318 106.797 188.362 106.77 188.391 106.746C188.42 106.717 188.435 106.702 188.435 106.702V104.942C188.137 104.942 187.9 105.025 187.724 105.191C187.548 105.353 187.46 105.604 187.46 105.947C187.46 106.558 187.667 106.863 188.083 106.863ZM196.207 108H193.839V103.255L193.399 102.984V102.199L194.975 101.767H196.222V102.713L196.31 102.603C196.369 102.524 196.454 102.432 196.567 102.324C196.684 102.216 196.814 102.111 196.955 102.009C197.097 101.901 197.266 101.811 197.461 101.737C197.662 101.659 197.857 101.62 198.048 101.62C198.718 101.62 199.19 101.803 199.463 102.17C199.742 102.537 199.881 103.15 199.881 104.011C199.881 104.04 199.881 104.084 199.881 104.143C199.877 104.201 199.874 104.248 199.874 104.282V108H197.454V104.069C197.469 103.61 197.273 103.38 196.867 103.38C196.838 103.38 196.809 103.382 196.779 103.387C196.755 103.392 196.731 103.397 196.706 103.402C196.687 103.407 196.662 103.417 196.633 103.431C196.608 103.441 196.586 103.451 196.567 103.461C196.547 103.466 196.525 103.478 196.501 103.497C196.476 103.512 196.457 103.524 196.442 103.534C196.427 103.544 196.405 103.561 196.376 103.585C196.352 103.605 196.332 103.62 196.317 103.629C196.308 103.639 196.288 103.656 196.259 103.681C196.234 103.7 196.217 103.715 196.207 103.725V108ZM206.168 107.347L206.094 107.428C206.046 107.487 205.97 107.555 205.867 107.633C205.769 107.712 205.654 107.79 205.522 107.868C205.395 107.946 205.239 108.012 205.053 108.066C204.867 108.125 204.677 108.154 204.481 108.154C203.161 108.154 202.501 107.501 202.501 106.196C202.501 105.942 202.548 105.71 202.64 105.499C202.733 105.284 202.853 105.103 203 104.957C203.146 104.81 203.322 104.68 203.528 104.568C203.733 104.451 203.938 104.36 204.144 104.297C204.354 104.228 204.574 104.172 204.804 104.128C205.034 104.084 205.239 104.055 205.42 104.04C205.601 104.025 205.774 104.018 205.94 104.018V103.886C205.94 103.588 205.86 103.378 205.698 103.255C205.542 103.133 205.288 103.072 204.936 103.072C204.633 103.072 204.317 103.109 203.99 103.182C203.662 103.25 203.406 103.334 203.22 103.431L202.75 102.434C203.083 102.219 203.516 102.031 204.048 101.869C204.581 101.703 205.124 101.62 205.676 101.62C206.165 101.62 206.569 101.669 206.886 101.767C207.204 101.86 207.461 102.021 207.656 102.251C207.857 102.476 207.999 102.764 208.082 103.116C208.165 103.463 208.206 103.906 208.206 104.443V107.428L208.412 108H206.402L206.168 107.347ZM205.588 106.863C205.652 106.863 205.711 106.851 205.764 106.827C205.823 106.797 205.867 106.77 205.896 106.746C205.926 106.717 205.94 106.702 205.94 106.702V104.942C205.642 104.942 205.405 105.025 205.229 105.191C205.053 105.353 204.965 105.604 204.965 105.947C204.965 106.558 205.173 106.863 205.588 106.863ZM213.713 108H211.344V103.255L210.904 102.984V102.199L212.481 101.767H213.728V102.713C213.752 102.678 213.786 102.634 213.83 102.581C213.879 102.522 213.967 102.432 214.094 102.309C214.221 102.187 214.351 102.08 214.483 101.987C214.62 101.894 214.784 101.811 214.974 101.737C215.17 101.659 215.363 101.62 215.554 101.62C216.042 101.62 216.416 101.713 216.676 101.899C216.935 102.084 217.118 102.388 217.226 102.808C217.392 102.52 217.646 102.251 217.988 102.001C218.335 101.747 218.717 101.62 219.132 101.62C219.592 101.62 219.949 101.701 220.203 101.862C220.462 102.018 220.65 102.287 220.768 102.669C220.885 103.05 220.944 103.588 220.944 104.282V108H218.56V104.069C218.56 103.854 218.509 103.686 218.406 103.563C218.304 103.441 218.147 103.38 217.937 103.38C217.795 103.38 217.602 103.497 217.358 103.732C217.372 103.967 217.38 104.221 217.38 104.495V108H214.96V104.069C214.974 103.61 214.779 103.38 214.373 103.38C214.344 103.38 214.314 103.382 214.285 103.387C214.26 103.392 214.236 103.397 214.212 103.402C214.192 103.407 214.168 103.417 214.138 103.431C214.114 103.441 214.092 103.451 214.072 103.461C214.053 103.466 214.031 103.478 214.006 103.497C213.982 103.512 213.962 103.524 213.948 103.534C213.933 103.544 213.911 103.561 213.882 103.585C213.857 103.605 213.838 103.62 213.823 103.629C213.813 103.639 213.794 103.656 213.764 103.681C213.74 103.7 213.723 103.715 213.713 103.725V108ZM234.561 107.391L234.495 107.472C234.446 107.521 234.363 107.584 234.246 107.663C234.133 107.736 233.996 107.812 233.835 107.89C233.679 107.963 233.468 108.024 233.204 108.073C232.94 108.127 232.657 108.154 232.354 108.154C231.713 108.154 231.166 108.049 230.711 107.839C230.256 107.624 229.899 107.313 229.64 106.907C229.386 106.497 229.203 106.035 229.09 105.521C228.978 105.003 228.922 104.404 228.922 103.725C228.922 103.001 228.978 102.378 229.09 101.855C229.203 101.327 229.389 100.865 229.648 100.469C229.912 100.068 230.273 99.7671 230.733 99.5667C231.193 99.3662 231.752 99.266 232.412 99.266C232.715 99.266 232.999 99.2929 233.263 99.3467C233.532 99.4004 233.742 99.4616 233.894 99.53C234.05 99.5984 234.189 99.6767 234.312 99.7647C234.439 99.8527 234.517 99.9138 234.546 99.948C234.581 99.9822 234.605 100.009 234.62 100.029L234.51 101.715H233.395L233.014 100.843C232.926 100.818 232.852 100.806 232.794 100.806C232.466 100.806 232.214 100.882 232.038 101.033C231.862 101.18 231.728 101.471 231.635 101.906C231.542 102.336 231.496 102.957 231.496 103.769C231.496 104.253 231.525 104.676 231.584 105.037C231.647 105.399 231.723 105.678 231.811 105.873C231.899 106.064 232.004 106.218 232.126 106.335C232.249 106.453 232.359 106.528 232.456 106.563C232.554 106.592 232.659 106.607 232.772 106.607C233.021 106.607 233.283 106.577 233.556 106.519C233.83 106.455 234.055 106.36 234.231 106.233L234.561 107.391ZM237.495 108V103.255L237.055 102.984V102.199L238.632 101.767H239.856V108H237.495ZM238.558 101.092L237.356 99.882V99.6253L238.558 98.4227H238.837L240.091 99.6253V99.882L238.837 101.092H238.558ZM245.437 108H243.068V103.255L242.628 102.984V102.199L244.205 101.767H245.451V102.713L245.539 102.603C245.598 102.524 245.684 102.432 245.796 102.324C245.913 102.216 246.043 102.111 246.185 102.009C246.327 101.901 246.495 101.811 246.691 101.737C246.891 101.659 247.087 101.62 247.277 101.62C247.947 101.62 248.419 101.803 248.693 102.17C248.971 102.537 249.111 103.15 249.111 104.011C249.111 104.04 249.111 104.084 249.111 104.143C249.106 104.201 249.103 104.248 249.103 104.282V108H246.683V104.069C246.698 103.61 246.503 103.38 246.097 103.38C246.067 103.38 246.038 103.382 246.009 103.387C245.984 103.392 245.96 103.397 245.935 103.402C245.916 103.407 245.891 103.417 245.862 103.431C245.838 103.441 245.816 103.451 245.796 103.461C245.777 103.466 245.755 103.478 245.73 103.497C245.706 103.512 245.686 103.524 245.671 103.534C245.657 103.544 245.635 103.561 245.605 103.585C245.581 103.605 245.561 103.62 245.547 103.629C245.537 103.639 245.517 103.656 245.488 103.681C245.464 103.7 245.447 103.715 245.437 103.725V108ZM255.522 104.209C255.522 103.588 255.49 103.148 255.426 102.889C255.363 102.63 255.245 102.5 255.074 102.5C254.928 102.5 254.808 102.527 254.715 102.581C254.622 102.63 254.554 102.71 254.51 102.823C254.466 102.93 254.436 103.043 254.422 103.16C254.412 103.272 254.407 103.417 254.407 103.593V104.209H255.522ZM254.935 108.154C254.387 108.154 253.911 108.071 253.505 107.905C253.104 107.738 252.786 107.506 252.552 107.208C252.322 106.91 252.153 106.575 252.046 106.203C251.938 105.827 251.884 105.409 251.884 104.949C251.884 103.854 252.163 103.026 252.72 102.463C253.278 101.901 254.057 101.62 255.06 101.62C256.023 101.62 256.712 101.847 257.128 102.302C257.543 102.752 257.751 103.478 257.751 104.48V105.294H254.4V105.433C254.4 105.722 254.429 105.959 254.488 106.145C254.551 106.33 254.642 106.467 254.759 106.555C254.876 106.643 254.996 106.702 255.118 106.731C255.241 106.761 255.39 106.775 255.566 106.775C255.737 106.775 255.92 106.753 256.116 106.709C256.316 106.665 256.517 106.597 256.717 106.504C256.922 106.411 257.093 106.301 257.23 106.174L257.663 106.915C257.482 107.208 257.216 107.455 256.864 107.655C256.517 107.851 256.182 107.983 255.859 108.051C255.536 108.12 255.228 108.154 254.935 108.154ZM263.114 108H260.745V103.255L260.305 102.984V102.199L261.882 101.767H263.129V102.713C263.153 102.678 263.187 102.634 263.231 102.581C263.28 102.522 263.368 102.432 263.495 102.309C263.623 102.187 263.752 102.08 263.884 101.987C264.021 101.894 264.185 101.811 264.375 101.737C264.571 101.659 264.764 101.62 264.955 101.62C265.444 101.62 265.818 101.713 266.077 101.899C266.336 102.084 266.519 102.388 266.627 102.808C266.793 102.52 267.047 102.251 267.389 102.001C267.737 101.747 268.118 101.62 268.533 101.62C268.993 101.62 269.35 101.701 269.604 101.862C269.863 102.018 270.051 102.287 270.169 102.669C270.286 103.05 270.345 103.588 270.345 104.282V108H267.961V104.069C267.961 103.854 267.91 103.686 267.807 103.563C267.705 103.441 267.548 103.38 267.338 103.38C267.196 103.38 267.003 103.497 266.759 103.732C266.773 103.967 266.781 104.221 266.781 104.495V108H264.361V104.069C264.375 103.61 264.18 103.38 263.774 103.38C263.745 103.38 263.715 103.382 263.686 103.387C263.662 103.392 263.637 103.397 263.613 103.402C263.593 103.407 263.569 103.417 263.539 103.431C263.515 103.441 263.493 103.451 263.473 103.461C263.454 103.466 263.432 103.478 263.407 103.497C263.383 103.512 263.363 103.524 263.349 103.534C263.334 103.544 263.312 103.561 263.283 103.585C263.258 103.605 263.239 103.62 263.224 103.629C263.214 103.639 263.195 103.656 263.165 103.681C263.141 103.7 263.124 103.715 263.114 103.725V108ZM276.641 107.347L276.567 107.428C276.519 107.487 276.443 107.555 276.34 107.633C276.242 107.712 276.127 107.79 275.995 107.868C275.868 107.946 275.712 108.012 275.526 108.066C275.34 108.125 275.15 108.154 274.954 108.154C273.634 108.154 272.974 107.501 272.974 106.196C272.974 105.942 273.021 105.71 273.113 105.499C273.206 105.284 273.326 105.103 273.473 104.957C273.619 104.81 273.795 104.68 274.001 104.568C274.206 104.451 274.411 104.36 274.617 104.297C274.827 104.228 275.047 104.172 275.277 104.128C275.507 104.084 275.712 104.055 275.893 104.04C276.074 104.025 276.247 104.018 276.413 104.018V103.886C276.413 103.588 276.333 103.378 276.171 103.255C276.015 103.133 275.761 103.072 275.409 103.072C275.106 103.072 274.79 103.109 274.463 103.182C274.135 103.25 273.879 103.334 273.693 103.431L273.223 102.434C273.556 102.219 273.989 102.031 274.521 101.869C275.054 101.703 275.597 101.62 276.149 101.62C276.638 101.62 277.042 101.669 277.359 101.767C277.677 101.86 277.934 102.021 278.129 102.251C278.33 102.476 278.472 102.764 278.555 103.116C278.638 103.463 278.679 103.906 278.679 104.443V107.428L278.885 108H276.875L276.641 107.347ZM276.061 106.863C276.125 106.863 276.184 106.851 276.237 106.827C276.296 106.797 276.34 106.77 276.369 106.746C276.399 106.717 276.413 106.702 276.413 106.702V104.942C276.115 104.942 275.878 105.025 275.702 105.191C275.526 105.353 275.438 105.604 275.438 105.947C275.438 106.558 275.646 106.863 276.061 106.863Z" fill="url(#paint12_linear_119_100)"/>
<path d="M166.5 27C175.567 15.5534 178.709 9.50893 181.054 0H311V27H166.5Z" fill="#162357"/>
<defs>
<linearGradient id="paint0_linear_119_100" x1="155.5" y1="0" x2="155.5" y2="119" gradientUnits="userSpaceOnUse">
<stop stop-color="#1C1A1B"/>
<stop offset="1" stop-color="#82797D"/>
</linearGradient>
<linearGradient id="paint1_linear_119_100" x1="155.5" y1="35" x2="155.5" y2="90" gradientUnits="userSpaceOnUse">
<stop stop-color="#FAFAFA"/>
<stop offset="1" stop-color="#AEAEAE"/>
</linearGradient>
<linearGradient id="paint2_linear_119_100" x1="54" y1="4" x2="54" y2="27" gradientUnits="userSpaceOnUse">
<stop stop-color="#FAFAFA"/>
<stop offset="1" stop-color="#949494"/>
</linearGradient>
<linearGradient id="paint3_linear_119_100" x1="87" y1="4" x2="87" y2="27" gradientUnits="userSpaceOnUse">
<stop stop-color="#FAFAFA"/>
<stop offset="1" stop-color="#949494"/>
</linearGradient>
<linearGradient id="paint4_linear_119_100" x1="120" y1="4" x2="120" y2="27" gradientUnits="userSpaceOnUse">
<stop stop-color="#FAFAFA"/>
<stop offset="1" stop-color="#949494"/>
</linearGradient>
<linearGradient id="paint5_linear_119_100" x1="153" y1="4" x2="153" y2="27" gradientUnits="userSpaceOnUse">
<stop stop-color="#FAFAFA"/>
<stop offset="1" stop-color="#949494"/>
</linearGradient>
<linearGradient id="paint6_linear_119_100" x1="18.9998" y1="8.66669" x2="18.9998" y2="25.3334" gradientUnits="userSpaceOnUse">
<stop stop-color="#B8001C"/>
<stop offset="1" stop-color="#D470B3"/>
</linearGradient>
<linearGradient id="paint7_linear_119_100" x1="18.9998" y1="8.66669" x2="18.9998" y2="25.3334" gradientUnits="userSpaceOnUse">
<stop stop-color="#B8001C"/>
<stop offset="1" stop-color="#D470B3"/>
</linearGradient>
<linearGradient id="paint8_linear_119_100" x1="12" y1="99.5" x2="41" y2="99.5" gradientUnits="userSpaceOnUse">
<stop stop-color="#76DEFF"/>
<stop offset="1" stop-color="#E86579"/>
</linearGradient>
<linearGradient id="paint9_linear_119_100" x1="43" y1="99.5" x2="72" y2="99.5" gradientUnits="userSpaceOnUse">
<stop stop-color="#E06E82"/>
<stop offset="1" stop-color="#788284"/>
</linearGradient>
<linearGradient id="paint10_linear_119_100" x1="75" y1="99.5" x2="98" y2="99.5" gradientUnits="userSpaceOnUse">
<stop stop-color="#7A7B7A"/>
<stop offset="0.283654" stop-color="#789398" stop-opacity="0.8"/>
<stop offset="0.581731" stop-color="#75ACB7" stop-opacity="0.8"/>
<stop offset="1" stop-color="#72CFE2"/>
</linearGradient>
<linearGradient id="paint11_linear_119_100" x1="212.5" y1="86" x2="212.5" y2="90" gradientUnits="userSpaceOnUse">
<stop stop-color="#28281A"/>
<stop offset="1" stop-color="#C8C8C4"/>
</linearGradient>
<linearGradient id="paint12_linear_119_100" x1="222" y1="99" x2="222" y2="112" gradientUnits="userSpaceOnUse">
<stop stop-color="#FAFAFA"/>
<stop offset="1" stop-color="#949494"/>
</linearGradient>
<clipPath id="clip0_119_100">
<rect width="20" height="20" fill="white" transform="translate(9 7)"/>
</clipPath>
</defs>
</svg>
